#define celsius_icon_width 9
#define celsius_icon_height 10
static char celsius_icon_bits[] = {
    0xE2, 0x00, 0xB5, 0x01, 0x35, 0x00, 0x32, 0x00, 0x30, 0x00, 0x30, 0x00,
    0x30, 0x00, 0x30, 0x00, 0xB0, 0x01, 0xE0, 0x00
};
