#define co2_icon_width 20
#define co2_icon_height 15
static char co2_icon_bits[] = {
    0x00, 0x0F, 0x00, 0xC0, 0x30, 0x00, 0x38, 0xC0, 0x01, 0x26, 0xC6, 0x07,
    0x3A, 0xC9, 0x07, 0x3B, 0xC9, 0x0F, 0x3B, 0x49, 0x0E, 0x3B, 0xC9, 0x0D,
    0x3B, 0xC9, 0x0E, 0x3B, 0x49, 0x0F, 0x3A, 0x49, 0x04, 0x26, 0xC6, 0x07,
    0x38, 0xC0, 0x01, 0xC0, 0x30, 0x00, 0x00, 0x0F, 0x00
};
