#define hygrometer_width 12
#define hygrometer_height 16
static char hygrometer_bits[] = {
    0x60, 0x00, 0x90, 0x00, 0x68, 0x01, 0x68, 0x01, 0xF4, 0x02, 0xF4, 0x02,
    0xFA, 0x05, 0xFA, 0x05, 0xFD, 0x0A, 0x3D, 0x0A, 0x0D, 0x0A, 0x05, 0x0A,
    0x0A, 0x05, 0xF2, 0x04, 0x0C, 0x03, 0xF0, 0x00
};
