#define percent_icon_width 9
#define percent_icon_height 10
static char percent_icon_bits[] = {
    0x8E, 0x00, 0xDB, 0x00, 0x7B, 0x00, 0x2E, 0x00, 0x30, 0x00, 0x18, 0x00,
    0xE8, 0x00, 0xBC, 0x01, 0xB6, 0x01, 0xE2, 0x00
};
