#define thermometer_width 12
#define thermometer_height 16
static char thermometer_bits[] = {
    0xF0, 0x00, 0x08, 0x01, 0xF4, 0x02, 0x34, 0x02, 0xF4, 0x02, 0x34, 0x02,
    0xF4, 0x02, 0x94, 0x02, 0x92, 0x04, 0x0A, 0x05, 0x05, 0x0A, 0x05, 0x0A,
    0x0A, 0x05, 0xF2, 0x04, 0x0C, 0x03, 0xF0, 0x00
};
